<svg width="58" height="46" viewBox="0 0 58 46" fill="none" xmlns="http://www.w3.org/2000/svg">
<path d="M49.8336 0H0V38.3335H49.8336V0ZM46.0002 34.5002H3.83335V3.83335H46.0002V34.5002Z" fill="#FF3030"/>
<path d="M53.6675 9.5835V42.167H9.58398V46.0003H57.5009V9.5835H53.6675Z" fill="#FF3030"/>
<path d="M24.9163 28.5656C29.6721 28.5656 33.5414 24.3565 33.5414 19.1828C33.5414 14.009 29.6721 9.79991 24.9163 9.79991C20.1606 9.79991 16.2913 14.0089 16.2913 19.1828C16.2913 24.3566 20.1606 28.5656 24.9163 28.5656ZM24.9163 13.6333C27.5585 13.6333 29.708 16.1228 29.708 19.1828C29.708 22.2427 27.5585 24.7323 24.9163 24.7323C22.2742 24.7323 20.1246 22.2427 20.1246 19.1828C20.1246 16.1228 22.2742 13.6333 24.9163 13.6333ZM7.66623 8.62498H11.4996V29.7084H7.66623V8.62498ZM38.3331 8.62498H42.1664V29.7084H38.3331V8.62498Z" fill="#FF3030"/>
</svg>
